<svg xmlns="http://www.w3.org/2000/svg" width="47.32" height="47.437" viewBox="0 0 47.32 47.437"><defs><style>.a{fill:#2ff7bf;}.b,.c,.d{fill:none;stroke:#0461b0;stroke-width:1.2px;}.b,.c{stroke-linejoin:round;}.c{stroke-linecap:round;}.d{stroke-miterlimit:10;}</style></defs><g transform="translate(-1332.4 -22.4)"><circle class="a" cx="18" cy="18" r="18" transform="translate(1343 32)"/><g transform="translate(2688.634 -1027.33)"><path class="b" d="M-1355.634,1096.437c0-.509.746-8.516.746-8.516l5.395-3.528"/><path class="c" d="M-1349.493,1084.393l.543,6.616,3.155-2.748Z"/><line class="c" x1="1.289" y2="5.021" transform="translate(-1347.831 1091.416)"/><path class="b" d="M-1335.956,1096.437c0-.509-.747-8.516-.747-8.516l-5.394-3.528"/><path class="c" d="M-1342.1,1084.393l-.543,6.616-3.155-2.748Z"/><path class="c" d="M-1345.8,1088.26l-1.682,1.465.936,1.69h1.493l.936-1.69Z"/><line class="c" x2="1.289" y2="5.021" transform="translate(-1345.049 1091.416)"/><line class="c" x2="2.884" transform="translate(-1342.097 1093.259)"/><path class="c" d="M-1341.871,1078.851c0-2.661-1.757-4.818-3.924-4.818s-3.925,2.157-3.925,4.818,1.757,4.817,3.925,4.817S-1341.871,1081.511-1341.871,1078.851Z"/><path class="b" d="M-1329.192,1072.734c0-.509.746-8.516.746-8.516l5.394-3.528"/><path class="c" d="M-1323.052,1060.69l.543,6.616,3.155-2.748Z"/><line class="c" x1="1.289" y2="5.021" transform="translate(-1321.389 1067.713)"/><path class="b" d="M-1309.514,1072.734c0-.509-.747-8.516-.747-8.516l-5.394-3.528"/><path class="c" d="M-1315.655,1060.69l-.543,6.616-3.155-2.748Z"/><path class="c" d="M-1319.353,1064.557l-1.682,1.465.936,1.69h1.493l.936-1.69Z"/><line class="c" x2="1.289" y2="5.021" transform="translate(-1318.607 1067.713)"/><line class="c" x2="2.884" transform="translate(-1315.655 1069.556)"/><ellipse class="c" cx="3.924" cy="4.818" rx="3.924" ry="4.818" transform="translate(-1323.278 1050.33)"/><path class="d" d="M-1325.575,1090.83a17.045,17.045,0,0,0,11.675-11.414"/><path class="d" d="M-1347.186,1069.835a17.047,17.047,0,0,1,11.414-11.675"/></g></g></svg>