<svg xmlns="http://www.w3.org/2000/svg" width="55.728" height="30.269" viewBox="0 0 55.728 30.269"><defs><style>.a{fill:#2ff7bf;}.b,.c{fill:none;stroke:#0461b0;stroke-miterlimit:10;stroke-width:1.2px;}.c{stroke-linecap:round;}</style></defs><g transform="translate(0.6 0.891)"><path class="a" d="M-1799.52,983.38v21.049l4.117,1.631,7.379-18.02Z" transform="translate(1801.589 -979.912)"/><path class="a" d="M-1788.024,983.38v21.049l-4.117,1.631-7.379-18.02Z" transform="translate(1843.153 -981.172)"/><path class="b" d="M-1760.949,999.129c-5.987,4.019-10.453-2.6-10.453-2.6-2.117-2.893-3.632.1-3.632.1-1.113,2.7-2.718,2.459-3.665,1.995a1.1,1.1,0,0,1-.553-1.3l.714-2.452a3.794,3.794,0,0,1,2.112-2.409l2.7-1.188a4.716,4.716,0,0,1,3.049-.085l7.041,1.668Z" transform="translate(1799.52 -983.38)"/><path class="b" d="M-1759.462,1002.6l-4.637,1.474-2.905-4.048a6.194,6.194,0,0,0,6.055-.9Z" transform="translate(1799.52 -983.38)"/><path class="b" d="M-1799.52,983.38v21.049l4.117,1.631,7.379-18.02Z" transform="translate(1799.52 -983.38)"/><path class="b" d="M-1788.621,989.5l5.257,2.214-4.66,10.894-5.144-2" transform="translate(1799.52 -983.38)"/><path class="b" d="M-1747.479,984.519v21.049l-4.117,1.631-7.379-18.02Z" transform="translate(1799.52 -983.38)"/><path class="b" d="M-1758.379,990.636l-5.257,2.214,4.66,10.894,5.144-2" transform="translate(1799.52 -983.38)"/><path class="c" d="M-1767.348,1000l4,5.014a1.424,1.424,0,0,1,.23,1.361h0a1.626,1.626,0,0,1-2.716.575l-5.489-5.824" transform="translate(1799.52 -983.38)"/><path class="c" d="M-1773.752,1003.867l4.619,4.832a2.393,2.393,0,0,0,4.005-.888c.008-.026.016-.053.025-.08" transform="translate(1799.52 -983.38)"/><path class="c" d="M-1775.966,1006.138l3.82,4.243a2.423,2.423,0,0,0,1.644.83,2.6,2.6,0,0,0,2.4-1.492" transform="translate(1799.52 -983.38)"/><path class="b" d="M-1783.364,991.711a29.435,29.435,0,0,1,7.637.437" transform="translate(1799.52 -983.38)"/><path class="b" d="M-1787.208,1000.7a94.755,94.755,0,0,1,11.029,9.287l1.79,1.719a1.564,1.564,0,0,0,2.63-.834l.007-.05" transform="translate(1799.52 -983.38)"/><path class="b" d="M-1784.176,1002.97l-.471.526a1.212,1.212,0,0,0,.136,1.745h0a1.346,1.346,0,0,0,1.86-.149l.46-.519" transform="translate(1799.52 -983.38)"/><path class="b" d="M-1779.759,1006.655l-1.032,1.126a1.5,1.5,0,0,1-2.094.121h0a1.5,1.5,0,0,1-.152-2.124l.962-1.109" transform="translate(1799.52 -983.38)"/><path class="b" d="M-1779.759,1006.655l-.668.729a1.494,1.494,0,0,0,.083,2.1h0a1.493,1.493,0,0,0,2.1-.069l.7-.74" transform="translate(1799.52 -983.38)"/><path class="b" d="M-1775.5,1010.638l-.367.376a1.412,1.412,0,0,1-1.985.035h0a1.413,1.413,0,0,1-.053-1.99l.265-.28" transform="translate(1799.52 -983.38)"/></g></svg>