<svg xmlns="http://www.w3.org/2000/svg" width="53.973" height="44.364" viewBox="0 0 53.973 44.364"><defs><style>.a{fill:#2ff7bf;stroke:#fff;}.a,.b{stroke-linecap:round;stroke-miterlimit:10;stroke-width:1.2px;}.b{fill:none;stroke:#0461b0;}</style></defs><g transform="translate(-638.4 -24.4)"><path class="a" d="M-1995.3,1147.485a144.422,144.422,0,0,1-21.213-2,.88.88,0,0,1-.73-.866v-11.444a1.963,1.963,0,0,1,1.964-1.963h45.733a1.963,1.963,0,0,1,1.963,1.963v11.444a.879.879,0,0,1-.73.866,144.408,144.408,0,0,1-21.214,2" transform="translate(2659.36 -1096.835)"/><g transform="translate(2656.246 -1099.835)"><path class="b" d="M-1969.145,1145.626v20.41a1.963,1.963,0,0,1-1.963,1.963h-42.615a1.963,1.963,0,0,1-1.963-1.963v-20.41"/><path class="b" d="M-1995.3,1147.485a144.422,144.422,0,0,1-21.213-2,.88.88,0,0,1-.73-.866v-11.444a1.963,1.963,0,0,1,1.964-1.963h45.733a1.963,1.963,0,0,1,1.963,1.963v11.444a.879.879,0,0,1-.73.866,144.408,144.408,0,0,1-21.214,2"/><rect class="b" width="5.773" height="5.773" rx="1.593" transform="translate(-1995.302 1144.627)"/><line class="b" x2="1.848" transform="translate(-1993.34 1147.514)"/><line class="b" x2="5.773" transform="translate(-1995.302 1152.849)"/><path class="b" d="M-1981.593,1131.216v-4.082a2.3,2.3,0,0,0-2.3-2.3h-17.049a2.3,2.3,0,0,0-2.3,2.3v4.082"/><path class="b" d="M-1999.863,1131.216v-3.088a.261.261,0,0,1,.267-.255h14.36a.261.261,0,0,1,.267.255v3.088"/></g></g></svg>